<svg aria-roledescription="sequence" role="graphics-document document" viewBox="-50 -10 2397 2866" style="max-width: 2397px;" xmlns="http://www.w3.org/2000/svg" width="100%" id="graphDiv"><g><rect class="actor actor-bottom" ry="3" rx="3" name="Queue" height="65" width="150" stroke="#666" fill="#eaeaea" y="2780" x="2147"></rect><text class="actor" alignment-baseline="central" dominant-baseline="central" style="text-anchor: middle; font-size: 16px; font-weight: 400;" y="2812.5" x="2222"><tspan dy="0" x="2222">Bull Queue</tspan></text></g><g><rect class="actor actor-bottom" ry="3" rx="3" name="S3" height="65" width="150" stroke="#666" fill="#eaeaea" y="2780" x="1902"></rect><text class="actor" alignment-baseline="central" dominant-baseline="central" style="text-anchor: middle; font-size: 16px; font-weight: 400;" y="2812.5" x="1977"><tspan dy="0" x="1977">AWS S3</tspan></text></g><g><rect class="actor actor-bottom" ry="3" rx="3" name="DB" height="65" width="150" stroke="#666" fill="#eaeaea" y="2780" x="1702"></rect><text class="actor" alignment-baseline="central" dominant-baseline="central" style="text-anchor: middle; font-size: 16px; font-weight: 400;" y="2812.5" x="1777"><tspan dy="0" x="1777">PostgreSQL</tspan></text></g><g><rect class="actor actor-bottom" ry="3" rx="3" name="API" height="65" width="150" stroke="#666" fill="#eaeaea" y="2780" x="1443"></rect><text class="actor" alignment-baseline="central" dominant-baseline="central" style="text-anchor: middle; font-size: 16px; font-weight: 400;" y="2812.5" x="1518"><tspan dy="0" x="1518">NestJS API</tspan></text></g><g><rect class="actor actor-bottom" ry="3" rx="3" name="GPS" height="65" width="150" stroke="#666" fill="#eaeaea" y="2780" x="1243"></rect><text class="actor" alignment-baseline="central" dominant-baseline="central" style="text-anchor: middle; font-size: 16px; font-weight: 400;" y="2812.5" x="1318"><tspan dy="0" x="1318">GPS Service</tspan></text></g><g><rect class="actor actor-bottom" ry="3" rx="3" name="Camera" height="65" width="150" stroke="#666" fill="#eaeaea" y="2780" x="1043"></rect><text class="actor" alignment-baseline="central" dominant-baseline="central" style="text-anchor: middle; font-size: 16px; font-weight: 400;" y="2812.5" x="1118"><tspan dy="0" x="1118">Device Camera</tspan></text></g><g><rect class="actor actor-bottom" ry="3" rx="3" name="SW" height="65" width="150" stroke="#666" fill="#eaeaea" y="2780" x="843"></rect><text class="actor" alignment-baseline="central" dominant-baseline="central" style="text-anchor: middle; font-size: 16px; font-weight: 400;" y="2812.5" x="918"><tspan dy="0" x="918">Service Worker</tspan></text></g><g><rect class="actor actor-bottom" ry="3" rx="3" name="IDB" height="65" width="150" stroke="#666" fill="#eaeaea" y="2780" x="643"></rect><text class="actor" alignment-baseline="central" dominant-baseline="central" style="text-anchor: middle; font-size: 16px; font-weight: 400;" y="2812.5" x="718"><tspan dy="0" x="718">IndexedDB</tspan></text></g><g><rect class="actor actor-bottom" ry="3" rx="3" name="PWA" height="65" width="150" stroke="#666" fill="#eaeaea" y="2780" x="275"></rect><text class="actor" alignment-baseline="central" dominant-baseline="central" style="text-anchor: middle; font-size: 16px; font-weight: 400;" y="2812.5" x="350"><tspan dy="0" x="350">PWA Client</tspan></text></g><g><line stroke="#999" stroke-width="0.5px" class="200" y2="2780" x2="2222" y1="5" x1="2222" id="actor64"></line><g id="root-64"><rect class="actor actor-top" ry="3" rx="3" name="Queue" height="65" width="150" stroke="#666" fill="#eaeaea" y="0" x="2147"></rect><text class="actor" alignment-baseline="central" dominant-baseline="central" style="text-anchor: middle; font-size: 16px; font-weight: 400;" y="32.5" x="2222"><tspan dy="0" x="2222">Bull Queue</tspan></text></g></g><g><line stroke="#999" stroke-width="0.5px" class="200" y2="2780" x2="1977" y1="5" x1="1977" id="actor63"></line><g id="root-63"><rect class="actor actor-top" ry="3" rx="3" name="S3" height="65" width="150" stroke="#666" fill="#eaeaea" y="0" x="1902"></rect><text class="actor" alignment-baseline="central" dominant-baseline="central" style="text-anchor: middle; font-size: 16px; font-weight: 400;" y="32.5" x="1977"><tspan dy="0" x="1977">AWS S3</tspan></text></g></g><g><line stroke="#999" stroke-width="0.5px" class="200" y2="2780" x2="1777" y1="5" x1="1777" id="actor62"></line><g id="root-62"><rect class="actor actor-top" ry="3" rx="3" name="DB" height="65" width="150" stroke="#666" fill="#eaeaea" y="0" x="1702"></rect><text class="actor" alignment-baseline="central" dominant-baseline="central" style="text-anchor: middle; font-size: 16px; font-weight: 400;" y="32.5" x="1777"><tspan dy="0" x="1777">PostgreSQL</tspan></text></g></g><g><line stroke="#999" stroke-width="0.5px" class="200" y2="2780" x2="1518" y1="5" x1="1518" id="actor61"></line><g id="root-61"><rect class="actor actor-top" ry="3" rx="3" name="API" height="65" width="150" stroke="#666" fill="#eaeaea" y="0" x="1443"></rect><text class="actor" alignment-baseline="central" dominant-baseline="central" style="text-anchor: middle; font-size: 16px; font-weight: 400;" y="32.5" x="1518"><tspan dy="0" x="1518">NestJS API</tspan></text></g></g><g><line stroke="#999" stroke-width="0.5px" class="200" y2="2780" x2="1318" y1="5" x1="1318" id="actor60"></line><g id="root-60"><rect class="actor actor-top" ry="3" rx="3" name="GPS" height="65" width="150" stroke="#666" fill="#eaeaea" y="0" x="1243"></rect><text class="actor" alignment-baseline="central" dominant-baseline="central" style="text-anchor: middle; font-size: 16px; font-weight: 400;" y="32.5" x="1318"><tspan dy="0" x="1318">GPS Service</tspan></text></g></g><g><line stroke="#999" stroke-width="0.5px" class="200" y2="2780" x2="1118" y1="5" x1="1118" id="actor59"></line><g id="root-59"><rect class="actor actor-top" ry="3" rx="3" name="Camera" height="65" width="150" stroke="#666" fill="#eaeaea" y="0" x="1043"></rect><text class="actor" alignment-baseline="central" dominant-baseline="central" style="text-anchor: middle; font-size: 16px; font-weight: 400;" y="32.5" x="1118"><tspan dy="0" x="1118">Device Camera</tspan></text></g></g><g><line stroke="#999" stroke-width="0.5px" class="200" y2="2780" x2="918" y1="5" x1="918" id="actor58"></line><g id="root-58"><rect class="actor actor-top" ry="3" rx="3" name="SW" height="65" width="150" stroke="#666" fill="#eaeaea" y="0" x="843"></rect><text class="actor" alignment-baseline="central" dominant-baseline="central" style="text-anchor: middle; font-size: 16px; font-weight: 400;" y="32.5" x="918"><tspan dy="0" x="918">Service Worker</tspan></text></g></g><g><line stroke="#999" stroke-width="0.5px" class="200" y2="2780" x2="718" y1="5" x1="718" id="actor57"></line><g id="root-57"><rect class="actor actor-top" ry="3" rx="3" name="IDB" height="65" width="150" stroke="#666" fill="#eaeaea" y="0" x="643"></rect><text class="actor" alignment-baseline="central" dominant-baseline="central" style="text-anchor: middle; font-size: 16px; font-weight: 400;" y="32.5" x="718"><tspan dy="0" x="718">IndexedDB</tspan></text></g></g><g><line stroke="#999" stroke-width="0.5px" class="200" y2="2780" x2="350" y1="5" x1="350" id="actor56"></line><g id="root-56"><rect class="actor actor-top" ry="3" rx="3" name="PWA" height="65" width="150" stroke="#666" fill="#eaeaea" y="0" x="275"></rect><text class="actor" alignment-baseline="central" dominant-baseline="central" style="text-anchor: middle; font-size: 16px; font-weight: 400;" y="32.5" x="350"><tspan dy="0" x="350">PWA Client</tspan></text></g></g><style>#graphDiv{font-family:"trebuchet ms",verdana,arial,sans-serif;font-size:16px;fill:#ccc;}#graphDiv .error-icon{fill:#a44141;}#graphDiv .error-text{fill:#ddd;stroke:#ddd;}#graphDiv .edge-thickness-normal{stroke-width:2px;}#graphDiv .edge-thickness-thick{stroke-width:3.5px;}#graphDiv .edge-pattern-solid{stroke-dasharray:0;}#graphDiv .edge-pattern-dashed{stroke-dasharray:3;}#graphDiv .edge-pattern-dotted{stroke-dasharray:2;}#graphDiv .marker{fill:lightgrey;stroke:lightgrey;}#graphDiv .marker.cross{stroke:lightgrey;}#graphDiv svg{font-family:"trebuchet ms",verdana,arial,sans-serif;font-size:16px;}#graphDiv .actor{stroke:#81B1DB;fill:#1f2020;}#graphDiv text.actor&gt;tspan{fill:lightgrey;stroke:none;}#graphDiv .actor-line{stroke:lightgrey;}#graphDiv .messageLine0{stroke-width:1.5;stroke-dasharray:none;stroke:lightgrey;}#graphDiv .messageLine1{stroke-width:1.5;stroke-dasharray:2,2;stroke:lightgrey;}#graphDiv #arrowhead path{fill:lightgrey;stroke:lightgrey;}#graphDiv .sequenceNumber{fill:black;}#graphDiv #sequencenumber{fill:lightgrey;}#graphDiv #crosshead path{fill:lightgrey;stroke:lightgrey;}#graphDiv .messageText{fill:lightgrey;stroke:none;}#graphDiv .labelBox{stroke:#81B1DB;fill:#1f2020;}#graphDiv .labelText,#graphDiv .labelText&gt;tspan{fill:lightgrey;stroke:none;}#graphDiv .loopText,#graphDiv .loopText&gt;tspan{fill:lightgrey;stroke:none;}#graphDiv .loopLine{stroke-width:2px;stroke-dasharray:2,2;stroke:#81B1DB;fill:#81B1DB;}#graphDiv .note{stroke:hsl(180, 0%, 18.3529411765%);fill:hsl(180, 1.5873015873%, 28.3529411765%);}#graphDiv .noteText,#graphDiv .noteText&gt;tspan{fill:rgb(183.8476190475, 181.5523809523, 181.5523809523);stroke:none;}#graphDiv .activation0{fill:hsl(180, 1.5873015873%, 28.3529411765%);stroke:#81B1DB;}#graphDiv .activation1{fill:hsl(180, 1.5873015873%, 28.3529411765%);stroke:#81B1DB;}#graphDiv .activation2{fill:hsl(180, 1.5873015873%, 28.3529411765%);stroke:#81B1DB;}#graphDiv .actorPopupMenu{position:absolute;}#graphDiv .actorPopupMenuPanel{position:absolute;fill:#1f2020;box-shadow:0px 8px 16px 0px rgba(0,0,0,0.2);filter:drop-shadow(3px 5px 2px rgb(0 0 0 / 0.4));}#graphDiv .actor-man line{stroke:#81B1DB;fill:#1f2020;}#graphDiv .actor-man circle,#graphDiv line{stroke:#81B1DB;fill:#1f2020;stroke-width:2px;}#graphDiv :root{--mermaid-font-family:"trebuchet ms",verdana,arial,sans-serif;}</style><g></g><defs><symbol height="24" width="24" id="computer"><path d="M2 2v13h20v-13h-20zm18 11h-16v-9h16v9zm-10.228 6l.466-1h3.524l.467 1h-4.457zm14.228 3h-24l2-6h2.104l-1.33 4h18.45l-1.297-4h2.073l2 6zm-5-10h-14v-7h14v7z" transform="scale(.5)"></path></symbol></defs><defs><symbol clip-rule="evenodd" fill-rule="evenodd" id="database"><path d="M12.258.001l.256.004.255.005.253.008.251.01.249.012.247.015.246.016.242.019.241.02.239.023.236.024.233.027.231.028.229.031.225.032.223.034.22.036.217.038.214.04.211.041.208.043.205.045.201.046.198.048.194.05.191.051.187.053.183.054.18.056.175.057.172.059.168.06.163.061.16.063.155.064.15.066.074.033.073.033.071.034.07.034.069.035.068.035.067.035.066.035.064.036.064.036.062.036.06.036.06.037.058.037.058.037.055.038.055.038.053.038.052.038.051.039.05.039.048.039.047.039.045.04.044.04.043.04.041.04.04.041.039.041.037.041.036.041.034.041.033.042.032.042.03.042.029.042.027.042.026.043.024.043.023.043.021.043.02.043.018.044.017.043.015.044.013.044.012.044.011.045.009.044.007.045.006.045.004.045.002.045.001.045v17l-.001.045-.002.045-.004.045-.006.045-.007.045-.009.044-.011.045-.012.044-.013.044-.015.044-.017.043-.018.044-.02.043-.021.043-.023.043-.024.043-.026.043-.027.042-.029.042-.03.042-.032.042-.033.042-.034.041-.036.041-.037.041-.039.041-.04.041-.041.04-.043.04-.044.04-.045.04-.047.039-.048.039-.05.039-.051.039-.052.038-.053.038-.055.038-.055.038-.058.037-.058.037-.06.037-.06.036-.062.036-.064.036-.064.036-.066.035-.067.035-.068.035-.069.035-.07.034-.071.034-.073.033-.074.033-.15.066-.155.064-.16.063-.163.061-.168.06-.172.059-.175.057-.18.056-.183.054-.187.053-.191.051-.194.05-.198.048-.201.046-.205.045-.208.043-.211.041-.214.04-.217.038-.22.036-.223.034-.225.032-.229.031-.231.028-.233.027-.236.024-.239.023-.241.02-.242.019-.246.016-.247.015-.249.012-.251.01-.253.008-.255.005-.256.004-.258.001-.258-.001-.256-.004-.255-.005-.253-.008-.251-.01-.249-.012-.247-.015-.245-.016-.243-.019-.241-.02-.238-.023-.236-.024-.234-.027-.231-.028-.228-.031-.226-.032-.223-.034-.22-.036-.217-.038-.214-.04-.211-.041-.208-.043-.204-.045-.201-.046-.198-.048-.195-.05-.19-.051-.187-.053-.184-.054-.179-.056-.176-.057-.172-.059-.167-.06-.164-.061-.159-.063-.155-.064-.151-.066-.074-.033-.072-.033-.072-.034-.07-.034-.069-.035-.068-.035-.067-.035-.066-.035-.064-.036-.063-.036-.062-.036-.061-.036-.06-.037-.058-.037-.057-.037-.056-.038-.055-.038-.053-.038-.052-.038-.051-.039-.049-.039-.049-.039-.046-.039-.046-.04-.044-.04-.043-.04-.041-.04-.04-.041-.039-.041-.037-.041-.036-.041-.034-.041-.033-.042-.032-.042-.03-.042-.029-.042-.027-.042-.026-.043-.024-.043-.023-.043-.021-.043-.02-.043-.018-.044-.017-.043-.015-.044-.013-.044-.012-.044-.011-.045-.009-.044-.007-.045-.006-.045-.004-.045-.002-.045-.001-.045v-17l.001-.045.002-.045.004-.045.006-.045.007-.045.009-.044.011-.045.012-.044.013-.044.015-.044.017-.043.018-.044.02-.043.021-.043.023-.043.024-.043.026-.043.027-.042.029-.042.03-.042.032-.042.033-.042.034-.041.036-.041.037-.041.039-.041.04-.041.041-.04.043-.04.044-.04.046-.04.046-.039.049-.039.049-.039.051-.039.052-.038.053-.038.055-.038.056-.038.057-.037.058-.037.06-.037.061-.036.062-.036.063-.036.064-.036.066-.035.067-.035.068-.035.069-.035.07-.034.072-.034.072-.033.074-.033.151-.066.155-.064.159-.063.164-.061.167-.06.172-.059.176-.057.179-.056.184-.054.187-.053.19-.051.195-.05.198-.048.201-.046.204-.045.208-.043.211-.041.214-.04.217-.038.22-.036.223-.034.226-.032.228-.031.231-.028.234-.027.236-.024.238-.023.241-.02.243-.019.245-.016.247-.015.249-.012.251-.01.253-.008.255-.005.256-.004.258-.001.258.001zm-9.258 20.499v.01l.001.021.003.021.004.022.005.021.006.022.007.022.009.023.01.022.011.023.012.023.013.023.015.023.016.024.017.023.018.024.019.024.021.024.022.025.023.024.024.025.052.049.056.05.061.051.066.051.07.051.075.051.079.052.084.052.088.052.092.052.097.052.102.051.105.052.11.052.114.051.119.051.123.051.127.05.131.05.135.05.139.048.144.049.147.047.152.047.155.047.16.045.163.045.167.043.171.043.176.041.178.041.183.039.187.039.19.037.194.035.197.035.202.033.204.031.209.03.212.029.216.027.219.025.222.024.226.021.23.02.233.018.236.016.24.015.243.012.246.01.249.008.253.005.256.004.259.001.26-.001.257-.004.254-.005.25-.008.247-.011.244-.012.241-.014.237-.016.233-.018.231-.021.226-.021.224-.024.22-.026.216-.027.212-.028.21-.031.205-.031.202-.034.198-.034.194-.036.191-.037.187-.039.183-.04.179-.04.175-.042.172-.043.168-.044.163-.045.16-.046.155-.046.152-.047.148-.048.143-.049.139-.049.136-.05.131-.05.126-.05.123-.051.118-.052.114-.051.11-.052.106-.052.101-.052.096-.052.092-.052.088-.053.083-.051.079-.052.074-.052.07-.051.065-.051.06-.051.056-.05.051-.05.023-.024.023-.025.021-.024.02-.024.019-.024.018-.024.017-.024.015-.023.014-.024.013-.023.012-.023.01-.023.01-.022.008-.022.006-.022.006-.022.004-.022.004-.021.001-.021.001-.021v-4.127l-.077.055-.08.053-.083.054-.085.053-.087.052-.09.052-.093.051-.095.05-.097.05-.1.049-.102.049-.105.048-.106.047-.109.047-.111.046-.114.045-.115.045-.118.044-.12.043-.122.042-.124.042-.126.041-.128.04-.13.04-.132.038-.134.038-.135.037-.138.037-.139.035-.142.035-.143.034-.144.033-.147.032-.148.031-.15.03-.151.03-.153.029-.154.027-.156.027-.158.026-.159.025-.161.024-.162.023-.163.022-.165.021-.166.02-.167.019-.169.018-.169.017-.171.016-.173.015-.173.014-.175.013-.175.012-.177.011-.178.01-.179.008-.179.008-.181.006-.182.005-.182.004-.184.003-.184.002h-.37l-.184-.002-.184-.003-.182-.004-.182-.005-.181-.006-.179-.008-.179-.008-.178-.01-.176-.011-.176-.012-.175-.013-.173-.014-.172-.015-.171-.016-.17-.017-.169-.018-.167-.019-.166-.02-.165-.021-.163-.022-.162-.023-.161-.024-.159-.025-.157-.026-.156-.027-.155-.027-.153-.029-.151-.03-.15-.03-.148-.031-.146-.032-.145-.033-.143-.034-.141-.035-.14-.035-.137-.037-.136-.037-.134-.038-.132-.038-.13-.04-.128-.04-.126-.041-.124-.042-.122-.042-.12-.044-.117-.043-.116-.045-.113-.045-.112-.046-.109-.047-.106-.047-.105-.048-.102-.049-.1-.049-.097-.05-.095-.05-.093-.052-.09-.051-.087-.052-.085-.053-.083-.054-.08-.054-.077-.054v4.127zm0-5.654v.011l.001.021.003.021.004.021.005.022.006.022.007.022.009.022.01.022.011.023.012.023.013.023.015.024.016.023.017.024.018.024.019.024.021.024.022.024.023.025.024.024.052.05.056.05.061.05.066.051.07.051.075.052.079.051.084.052.088.052.092.052.097.052.102.052.105.052.11.051.114.051.119.052.123.05.127.051.131.05.135.049.139.049.144.048.147.048.152.047.155.046.16.045.163.045.167.044.171.042.176.042.178.04.183.04.187.038.19.037.194.036.197.034.202.033.204.032.209.03.212.028.216.027.219.025.222.024.226.022.23.02.233.018.236.016.24.014.243.012.246.01.249.008.253.006.256.003.259.001.26-.001.257-.003.254-.006.25-.008.247-.01.244-.012.241-.015.237-.016.233-.018.231-.02.226-.022.224-.024.22-.025.216-.027.212-.029.21-.03.205-.032.202-.033.198-.035.194-.036.191-.037.187-.039.183-.039.179-.041.175-.042.172-.043.168-.044.163-.045.16-.045.155-.047.152-.047.148-.048.143-.048.139-.05.136-.049.131-.05.126-.051.123-.051.118-.051.114-.052.11-.052.106-.052.101-.052.096-.052.092-.052.088-.052.083-.052.079-.052.074-.051.07-.052.065-.051.06-.05.056-.051.051-.049.023-.025.023-.024.021-.025.02-.024.019-.024.018-.024.017-.024.015-.023.014-.023.013-.024.012-.022.01-.023.01-.023.008-.022.006-.022.006-.022.004-.021.004-.022.001-.021.001-.021v-4.139l-.077.054-.08.054-.083.054-.085.052-.087.053-.09.051-.093.051-.095.051-.097.05-.1.049-.102.049-.105.048-.106.047-.109.047-.111.046-.114.045-.115.044-.118.044-.12.044-.122.042-.124.042-.126.041-.128.04-.13.039-.132.039-.134.038-.135.037-.138.036-.139.036-.142.035-.143.033-.144.033-.147.033-.148.031-.15.03-.151.03-.153.028-.154.028-.156.027-.158.026-.159.025-.161.024-.162.023-.163.022-.165.021-.166.02-.167.019-.169.018-.169.017-.171.016-.173.015-.173.014-.175.013-.175.012-.177.011-.178.009-.179.009-.179.007-.181.007-.182.005-.182.004-.184.003-.184.002h-.37l-.184-.002-.184-.003-.182-.004-.182-.005-.181-.007-.179-.007-.179-.009-.178-.009-.176-.011-.176-.012-.175-.013-.173-.014-.172-.015-.171-.016-.17-.017-.169-.018-.167-.019-.166-.02-.165-.021-.163-.022-.162-.023-.161-.024-.159-.025-.157-.026-.156-.027-.155-.028-.153-.028-.151-.03-.15-.03-.148-.031-.146-.033-.145-.033-.143-.033-.141-.035-.14-.036-.137-.036-.136-.037-.134-.038-.132-.039-.13-.039-.128-.04-.126-.041-.124-.042-.122-.043-.12-.043-.117-.044-.116-.044-.113-.046-.112-.046-.109-.046-.106-.047-.105-.048-.102-.049-.1-.049-.097-.05-.095-.051-.093-.051-.09-.051-.087-.053-.085-.052-.083-.054-.08-.054-.077-.054v4.139zm0-5.666v.011l.001.02.003.022.004.021.005.022.006.021.007.022.009.023.01.022.011.023.012.023.013.023.015.023.016.024.017.024.018.023.019.024.021.025.022.024.023.024.024.025.052.05.056.05.061.05.066.051.07.051.075.052.079.051.084.052.088.052.092.052.097.052.102.052.105.051.11.052.114.051.119.051.123.051.127.05.131.05.135.05.139.049.144.048.147.048.152.047.155.046.16.045.163.045.167.043.171.043.176.042.178.04.183.04.187.038.19.037.194.036.197.034.202.033.204.032.209.03.212.028.216.027.219.025.222.024.226.021.23.02.233.018.236.017.24.014.243.012.246.01.249.008.253.006.256.003.259.001.26-.001.257-.003.254-.006.25-.008.247-.01.244-.013.241-.014.237-.016.233-.018.231-.02.226-.022.224-.024.22-.025.216-.027.212-.029.21-.03.205-.032.202-.033.198-.035.194-.036.191-.037.187-.039.183-.039.179-.041.175-.042.172-.043.168-.044.163-.045.16-.045.155-.047.152-.047.148-.048.143-.049.139-.049.136-.049.131-.051.126-.05.123-.051.118-.052.114-.051.11-.052.106-.052.101-.052.096-.052.092-.052.088-.052.083-.052.079-.052.074-.052.07-.051.065-.051.06-.051.056-.05.051-.049.023-.025.023-.025.021-.024.02-.024.019-.024.018-.024.017-.024.015-.023.014-.024.013-.023.012-.023.01-.022.01-.023.008-.022.006-.022.006-.022.004-.022.004-.021.001-.021.001-.021v-4.153l-.077.054-.08.054-.083.053-.085.053-.087.053-.09.051-.093.051-.095.051-.097.05-.1.049-.102.048-.105.048-.106.048-.109.046-.111.046-.114.046-.115.044-.118.044-.12.043-.122.043-.124.042-.126.041-.128.04-.13.039-.132.039-.134.038-.135.037-.138.036-.139.036-.142.034-.143.034-.144.033-.147.032-.148.032-.15.03-.151.03-.153.028-.154.028-.156.027-.158.026-.159.024-.161.024-.162.023-.163.023-.165.021-.166.02-.167.019-.169.018-.169.017-.171.016-.173.015-.173.014-.175.013-.175.012-.177.01-.178.01-.179.009-.179.007-.181.006-.182.006-.182.004-.184.003-.184.001-.185.001-.185-.001-.184-.001-.184-.003-.182-.004-.182-.006-.181-.006-.179-.007-.179-.009-.178-.01-.176-.01-.176-.012-.175-.013-.173-.014-.172-.015-.171-.016-.17-.017-.169-.018-.167-.019-.166-.02-.165-.021-.163-.023-.162-.023-.161-.024-.159-.024-.157-.026-.156-.027-.155-.028-.153-.028-.151-.03-.15-.03-.148-.032-.146-.032-.145-.033-.143-.034-.141-.034-.14-.036-.137-.036-.136-.037-.134-.038-.132-.039-.13-.039-.128-.041-.126-.041-.124-.041-.122-.043-.12-.043-.117-.044-.116-.044-.113-.046-.112-.046-.109-.046-.106-.048-.105-.048-.102-.048-.1-.05-.097-.049-.095-.051-.093-.051-.09-.052-.087-.052-.085-.053-.083-.053-.08-.054-.077-.054v4.153zm8.74-8.179l-.257.004-.254.005-.25.008-.247.011-.244.012-.241.014-.237.016-.233.018-.231.021-.226.022-.224.023-.22.026-.216.027-.212.028-.21.031-.205.032-.202.033-.198.034-.194.036-.191.038-.187.038-.183.04-.179.041-.175.042-.172.043-.168.043-.163.045-.16.046-.155.046-.152.048-.148.048-.143.048-.139.049-.136.05-.131.05-.126.051-.123.051-.118.051-.114.052-.11.052-.106.052-.101.052-.096.052-.092.052-.088.052-.083.052-.079.052-.074.051-.07.052-.065.051-.06.05-.056.05-.051.05-.023.025-.023.024-.021.024-.02.025-.019.024-.018.024-.017.023-.015.024-.014.023-.013.023-.012.023-.01.023-.01.022-.008.022-.006.023-.006.021-.004.022-.004.021-.001.021-.001.021.001.021.001.021.004.021.004.022.006.021.006.023.008.022.01.022.01.023.012.023.013.023.014.023.015.024.017.023.018.024.019.024.02.025.021.024.023.024.023.025.051.05.056.05.06.05.065.051.07.052.074.051.079.052.083.052.088.052.092.052.096.052.101.052.106.052.11.052.114.052.118.051.123.051.126.051.131.05.136.05.139.049.143.048.148.048.152.048.155.046.16.046.163.045.168.043.172.043.175.042.179.041.183.04.187.038.191.038.194.036.198.034.202.033.205.032.21.031.212.028.216.027.22.026.224.023.226.022.231.021.233.018.237.016.241.014.244.012.247.011.25.008.254.005.257.004.26.001.26-.001.257-.004.254-.005.25-.008.247-.011.244-.012.241-.014.237-.016.233-.018.231-.021.226-.022.224-.023.22-.026.216-.027.212-.028.21-.031.205-.032.202-.033.198-.034.194-.036.191-.038.187-.038.183-.04.179-.041.175-.042.172-.043.168-.043.163-.045.16-.046.155-.046.152-.048.148-.048.143-.048.139-.049.136-.05.131-.05.126-.051.123-.051.118-.051.114-.052.11-.052.106-.052.101-.052.096-.052.092-.052.088-.052.083-.052.079-.052.074-.051.07-.052.065-.051.06-.05.056-.05.051-.05.023-.025.023-.024.021-.024.02-.025.019-.024.018-.024.017-.023.015-.024.014-.023.013-.023.012-.023.01-.023.01-.022.008-.022.006-.023.006-.021.004-.022.004-.021.001-.021.001-.021-.001-.021-.001-.021-.004-.021-.004-.022-.006-.021-.006-.023-.008-.022-.01-.022-.01-.023-.012-.023-.013-.023-.014-.023-.015-.024-.017-.023-.018-.024-.019-.024-.02-.025-.021-.024-.023-.024-.023-.025-.051-.05-.056-.05-.06-.05-.065-.051-.07-.052-.074-.051-.079-.052-.083-.052-.088-.052-.092-.052-.096-.052-.101-.052-.106-.052-.11-.052-.114-.052-.118-.051-.123-.051-.126-.051-.131-.05-.136-.05-.139-.049-.143-.048-.148-.048-.152-.048-.155-.046-.16-.046-.163-.045-.168-.043-.172-.043-.175-.042-.179-.041-.183-.04-.187-.038-.191-.038-.194-.036-.198-.034-.202-.033-.205-.032-.21-.031-.212-.028-.216-.027-.22-.026-.224-.023-.226-.022-.231-.021-.233-.018-.237-.016-.241-.014-.244-.012-.247-.011-.25-.008-.254-.005-.257-.004-.26-.001-.26.001z" transform="scale(.5)"></path></symbol></defs><defs><symbol height="24" width="24" id="clock"><path d="M12 2c5.514 0 10 4.486 10 10s-4.486 10-10 10-10-4.486-10-10 4.486-10 10-10zm0-2c-6.627 0-12 5.373-12 12s5.373 12 12 12 12-5.373 12-12-5.373-12-12-12zm5.848 12.459c.202.038.202.333.001.372-1.907.361-6.045 1.111-6.547 1.111-.719 0-1.301-.582-1.301-1.301 0-.512.77-5.447 1.125-7.445.034-.192.312-.181.343.014l.985 6.238 5.394 1.011z" transform="scale(.5)"></path></symbol></defs><defs><marker orient="auto" markerHeight="12" markerWidth="12" markerUnits="userSpaceOnUse" refY="5" refX="7.9" id="arrowhead"><path d="M 0 0 L 10 5 L 0 10 z"></path></marker></defs><defs><marker refY="4.5" refX="4" orient="auto" markerHeight="8" markerWidth="15" id="crosshead"><path d="M 1,2 L 6,7 M 6,2 L 1,7" stroke-width="1pt" style="stroke-dasharray: 0px, 0px;" stroke="#000000" fill="none"></path></marker></defs><defs><marker orient="auto" markerHeight="28" markerWidth="20" refY="7" refX="15.5" id="filled-head"><path d="M 18,7 L9,13 L14,7 L9,1 Z"></path></marker></defs><defs><marker orient="auto" markerHeight="40" markerWidth="60" refY="15" refX="15" id="sequencenumber"><circle r="6" cy="15" cx="15"></circle></marker></defs><g><rect class="note" ry="0" rx="0" height="39" width="1218" stroke="#666" fill="#EDF2AE" y="1569" x="325"></rect><text dy="1em" class="noteText" style="font-size: 16px; font-weight: 400;" alignment-baseline="middle" dominant-baseline="middle" text-anchor="middle" y="1574" x="934"><tspan x="934">Network becomes available</tspan></text></g><g><line class="loopLine" y2="1928" x2="2233" y1="1928" x1="339"></line><line class="loopLine" y2="2704" x2="2233" y1="1928" x1="2233"></line><line class="loopLine" y2="2704" x2="2233" y1="2704" x1="339"></line><line class="loopLine" y2="2704" x2="339" y1="1928" x1="339"></line><polygon class="labelBox" points="339,1928 389,1928 389,1941 380.6,1948 339,1948"></polygon><text class="labelText" style="font-size: 16px; font-weight: 400;" alignment-baseline="middle" dominant-baseline="middle" text-anchor="middle" y="1941" x="364">loop</text><text class="loopText" style="font-size: 16px; font-weight: 400;" text-anchor="middle" y="1946" x="1311"><tspan x="1311">[For each unsynced activity]</tspan></text></g><line stroke="#999" stroke-width="0.5px" class="200" y2="2780" x2="75" y1="80" x1="75" id="actor55"></line><g name="Supervisor" class="actor-man actor-top"><line y2="45" x2="75" y1="25" x1="75" id="actor-man-torso55"></line><line y2="33" x2="93" y1="33" x1="57" id="actor-man-arms55"></line><line y2="45" x2="75" y1="60" x1="57"></line><line y2="60" x2="91" y1="45" x1="75"></line><circle height="65" width="150" r="15" cy="10" cx="75"></circle><text class="actor" alignment-baseline="central" dominant-baseline="central" style="text-anchor: middle; font-size: 16px; font-weight: 400;" y="67.5" x="75"><tspan dy="0" x="75">Supervisor</tspan></text></g><text dy="1em" class="messageText" style="font-size: 16px; font-weight: 400;" alignment-baseline="middle" dominant-baseline="middle" text-anchor="middle" y="80" x="211">Open "Log Activity"</text><line marker-end="url(#arrowhead)" style="fill: none;" stroke="none" stroke-width="2" class="messageLine0" y2="121" x2="346" y1="121" x1="76"></line><text dy="1em" class="messageText" style="font-size: 16px; font-weight: 400;" alignment-baseline="middle" dominant-baseline="middle" text-anchor="middle" y="136" x="351">Check online status</text><path marker-end="url(#arrowhead)" style="fill: none;" stroke="none" stroke-width="2" class="messageLine0" d="M 351,177 C 411,167 411,207 351,197"></path><text dy="1em" class="messageText" style="font-size: 16px; font-weight: 400;" alignment-baseline="middle" dominant-baseline="middle" text-anchor="middle" y="222" x="533">Load cached fields &amp; activity types</text><line marker-end="url(#arrowhead)" style="fill: none;" stroke="none" stroke-width="2" class="messageLine0" y2="263" x2="714" y1="263" x1="351"></line><text dy="1em" class="messageText" style="font-size: 16px; font-weight: 400;" alignment-baseline="middle" dominant-baseline="middle" text-anchor="middle" y="278" x="536">Cached data</text><line marker-end="url(#arrowhead)" stroke="none" stroke-width="2" class="messageLine1" style="stroke-dasharray: 3px, 3px; fill: none;" y2="319" x2="354" y1="319" x1="717"></line><text dy="1em" class="messageText" style="font-size: 16px; font-weight: 400;" alignment-baseline="middle" dominant-baseline="middle" text-anchor="middle" y="334" x="214">Show activity form</text><line marker-end="url(#arrowhead)" stroke="none" stroke-width="2" class="messageLine1" style="stroke-dasharray: 3px, 3px; fill: none;" y2="375" x2="79" y1="375" x1="349"></line><text dy="1em" class="messageText" style="font-size: 16px; font-weight: 400;" alignment-baseline="middle" dominant-baseline="middle" text-anchor="middle" y="390" x="211">Select field &amp; activity type</text><line marker-end="url(#arrowhead)" style="fill: none;" stroke="none" stroke-width="2" class="messageLine0" y2="431" x2="346" y1="431" x1="76"></line><text dy="1em" class="messageText" style="font-size: 16px; font-weight: 400;" alignment-baseline="middle" dominant-baseline="middle" text-anchor="middle" y="446" x="211">Enter details (inputs, labor)</text><line marker-end="url(#arrowhead)" style="fill: none;" stroke="none" stroke-width="2" class="messageLine0" y2="487" x2="346" y1="487" x1="76"></line><text dy="1em" class="messageText" style="font-size: 16px; font-weight: 400;" alignment-baseline="middle" dominant-baseline="middle" text-anchor="middle" y="502" x="211">Click "Add Photos"</text><line marker-end="url(#arrowhead)" style="fill: none;" stroke="none" stroke-width="2" class="messageLine0" y2="543" x2="346" y1="543" x1="76"></line><text dy="1em" class="messageText" style="font-size: 16px; font-weight: 400;" alignment-baseline="middle" dominant-baseline="middle" text-anchor="middle" y="558" x="733">Request camera access</text><line marker-end="url(#arrowhead)" style="fill: none;" stroke="none" stroke-width="2" class="messageLine0" y2="599" x2="1114" y1="599" x1="351"></line><text dy="1em" class="messageText" style="font-size: 16px; font-weight: 400;" alignment-baseline="middle" dominant-baseline="middle" text-anchor="middle" y="614" x="736">Camera stream</text><line marker-end="url(#arrowhead)" stroke="none" stroke-width="2" class="messageLine1" style="stroke-dasharray: 3px, 3px; fill: none;" y2="655" x2="354" y1="655" x1="1117"></line><text dy="1em" class="messageText" style="font-size: 16px; font-weight: 400;" alignment-baseline="middle" dominant-baseline="middle" text-anchor="middle" y="670" x="595">Take photo</text><line marker-end="url(#arrowhead)" style="fill: none;" stroke="none" stroke-width="2" class="messageLine0" y2="711" x2="1114" y1="711" x1="76"></line><text dy="1em" class="messageText" style="font-size: 16px; font-weight: 400;" alignment-baseline="middle" dominant-baseline="middle" text-anchor="middle" y="726" x="736">Photo blob</text><line marker-end="url(#arrowhead)" stroke="none" stroke-width="2" class="messageLine1" style="stroke-dasharray: 3px, 3px; fill: none;" y2="767" x2="354" y1="767" x1="1117"></line><text dy="1em" class="messageText" style="font-size: 16px; font-weight: 400;" alignment-baseline="middle" dominant-baseline="middle" text-anchor="middle" y="782" x="351">Compress image (Sharp)</text><path marker-end="url(#arrowhead)" style="fill: none;" stroke="none" stroke-width="2" class="messageLine0" d="M 351,823 C 411,813 411,853 351,843"></path><text dy="1em" class="messageText" style="font-size: 16px; font-weight: 400;" alignment-baseline="middle" dominant-baseline="middle" text-anchor="middle" y="868" x="833">Get current location</text><line marker-end="url(#arrowhead)" style="fill: none;" stroke="none" stroke-width="2" class="messageLine0" y2="909" x2="1314" y1="909" x1="351"></line><text dy="1em" class="messageText" style="font-size: 16px; font-weight: 400;" alignment-baseline="middle" dominant-baseline="middle" text-anchor="middle" y="924" x="836">Coordinates</text><line marker-end="url(#arrowhead)" stroke="none" stroke-width="2" class="messageLine1" style="stroke-dasharray: 3px, 3px; fill: none;" y2="965" x2="354" y1="965" x1="1317"></line><text dy="1em" class="messageText" style="font-size: 16px; font-weight: 400;" alignment-baseline="middle" dominant-baseline="middle" text-anchor="middle" y="980" x="351">Attach GPS to photo metadata</text><path marker-end="url(#arrowhead)" style="fill: none;" stroke="none" stroke-width="2" class="messageLine0" d="M 351,1021 C 411,1011 411,1051 351,1041"></path><text dy="1em" class="messageText" style="font-size: 16px; font-weight: 400;" alignment-baseline="middle" dominant-baseline="middle" text-anchor="middle" y="1066" x="211">Click "Save Activity"</text><line marker-end="url(#arrowhead)" style="fill: none;" stroke="none" stroke-width="2" class="messageLine0" y2="1107" x2="346" y1="1107" x1="76"></line><text dy="1em" class="messageText" style="font-size: 16px; font-weight: 400;" alignment-baseline="middle" dominant-baseline="middle" text-anchor="middle" y="1122" x="351">Generate offline ID (UUID)</text><path marker-end="url(#arrowhead)" style="fill: none;" stroke="none" stroke-width="2" class="messageLine0" d="M 351,1163 C 411,1153 411,1193 351,1183"></path><text dy="1em" class="messageText" style="font-size: 16px; font-weight: 400;" alignment-baseline="middle" dominant-baseline="middle" text-anchor="middle" y="1208" x="351">Set isSynced = false</text><path marker-end="url(#arrowhead)" style="fill: none;" stroke="none" stroke-width="2" class="messageLine0" d="M 351,1249 C 411,1239 411,1279 351,1269"></path><text dy="1em" class="messageText" style="font-size: 16px; font-weight: 400;" alignment-baseline="middle" dominant-baseline="middle" text-anchor="middle" y="1294" x="533">Store activity locally</text><line marker-end="url(#arrowhead)" style="fill: none;" stroke="none" stroke-width="2" class="messageLine0" y2="1335" x2="714" y1="1335" x1="351"></line><text dy="1em" class="messageText" style="font-size: 16px; font-weight: 400;" alignment-baseline="middle" dominant-baseline="middle" text-anchor="middle" y="1350" x="536">Stored</text><line marker-end="url(#arrowhead)" stroke="none" stroke-width="2" class="messageLine1" style="stroke-dasharray: 3px, 3px; fill: none;" y2="1391" x2="354" y1="1391" x1="717"></line><text dy="1em" class="messageText" style="font-size: 16px; font-weight: 400;" alignment-baseline="middle" dominant-baseline="middle" text-anchor="middle" y="1406" x="533">Store photos locally</text><line marker-end="url(#arrowhead)" style="fill: none;" stroke="none" stroke-width="2" class="messageLine0" y2="1447" x2="714" y1="1447" x1="351"></line><text dy="1em" class="messageText" style="font-size: 16px; font-weight: 400;" alignment-baseline="middle" dominant-baseline="middle" text-anchor="middle" y="1462" x="536">Stored</text><line marker-end="url(#arrowhead)" stroke="none" stroke-width="2" class="messageLine1" style="stroke-dasharray: 3px, 3px; fill: none;" y2="1503" x2="354" y1="1503" x1="717"></line><text dy="1em" class="messageText" style="font-size: 16px; font-weight: 400;" alignment-baseline="middle" dominant-baseline="middle" text-anchor="middle" y="1518" x="214">Activity saved (offline badge)</text><line marker-end="url(#arrowhead)" stroke="none" stroke-width="2" class="messageLine1" style="stroke-dasharray: 3px, 3px; fill: none;" y2="1559" x2="79" y1="1559" x1="349"></line><text dy="1em" class="messageText" style="font-size: 16px; font-weight: 400;" alignment-baseline="middle" dominant-baseline="middle" text-anchor="middle" y="1623" x="633">Detect online status</text><line marker-end="url(#arrowhead)" style="fill: none;" stroke="none" stroke-width="2" class="messageLine0" y2="1664" x2="914" y1="1664" x1="351"></line><text dy="1em" class="messageText" style="font-size: 16px; font-weight: 400;" alignment-baseline="middle" dominant-baseline="middle" text-anchor="middle" y="1679" x="636">Online event</text><line marker-end="url(#arrowhead)" style="fill: none;" stroke="none" stroke-width="2" class="messageLine0" y2="1720" x2="354" y1="1720" x1="917"></line><text dy="1em" class="messageText" style="font-size: 16px; font-weight: 400;" alignment-baseline="middle" dominant-baseline="middle" text-anchor="middle" y="1735" x="351">Check sync queue</text><path marker-end="url(#arrowhead)" style="fill: none;" stroke="none" stroke-width="2" class="messageLine0" d="M 351,1776 C 411,1766 411,1806 351,1796"></path><text dy="1em" class="messageText" style="font-size: 16px; font-weight: 400;" alignment-baseline="middle" dominant-baseline="middle" text-anchor="middle" y="1821" x="533">Get unsynced activities</text><line marker-end="url(#arrowhead)" style="fill: none;" stroke="none" stroke-width="2" class="messageLine0" y2="1862" x2="714" y1="1862" x1="351"></line><text dy="1em" class="messageText" style="font-size: 16px; font-weight: 400;" alignment-baseline="middle" dominant-baseline="middle" text-anchor="middle" y="1877" x="536">Activity list</text><line marker-end="url(#arrowhead)" stroke="none" stroke-width="2" class="messageLine1" style="stroke-dasharray: 3px, 3px; fill: none;" y2="1918" x2="354" y1="1918" x1="717"></line><text dy="1em" class="messageText" style="font-size: 16px; font-weight: 400;" alignment-baseline="middle" dominant-baseline="middle" text-anchor="middle" y="1981" x="933">POST /activities</text><line marker-end="url(#arrowhead)" style="fill: none;" stroke="none" stroke-width="2" class="messageLine0" y2="2022" x2="1514" y1="2022" x1="351"></line><text dy="1em" class="messageText" style="font-size: 16px; font-weight: 400;" alignment-baseline="middle" dominant-baseline="middle" text-anchor="middle" y="2037" x="1646">Insert activity</text><line marker-end="url(#arrowhead)" style="fill: none;" stroke="none" stroke-width="2" class="messageLine0" y2="2078" x2="1773" y1="2078" x1="1519"></line><text dy="1em" class="messageText" style="font-size: 16px; font-weight: 400;" alignment-baseline="middle" dominant-baseline="middle" text-anchor="middle" y="2093" x="1649">Activity created (server ID)</text><line marker-end="url(#arrowhead)" stroke="none" stroke-width="2" class="messageLine1" style="stroke-dasharray: 3px, 3px; fill: none;" y2="2134" x2="1522" y1="2134" x1="1776"></line><text dy="1em" class="messageText" style="font-size: 16px; font-weight: 400;" alignment-baseline="middle" dominant-baseline="middle" text-anchor="middle" y="2149" x="1869">Add photo upload job</text><line marker-end="url(#arrowhead)" style="fill: none;" stroke="none" stroke-width="2" class="messageLine0" y2="2190" x2="2218" y1="2190" x1="1519"></line><text dy="1em" class="messageText" style="font-size: 16px; font-weight: 400;" alignment-baseline="middle" dominant-baseline="middle" text-anchor="middle" y="2205" x="2101">Upload photos</text><line marker-end="url(#arrowhead)" style="fill: none;" stroke="none" stroke-width="2" class="messageLine0" y2="2246" x2="1981" y1="2246" x1="2221"></line><text dy="1em" class="messageText" style="font-size: 16px; font-weight: 400;" alignment-baseline="middle" dominant-baseline="middle" text-anchor="middle" y="2261" x="2098">Upload complete (URLs)</text><line marker-end="url(#arrowhead)" stroke="none" stroke-width="2" class="messageLine1" style="stroke-dasharray: 3px, 3px; fill: none;" y2="2302" x2="2218" y1="2302" x1="1978"></line><text dy="1em" class="messageText" style="font-size: 16px; font-weight: 400;" alignment-baseline="middle" dominant-baseline="middle" text-anchor="middle" y="2317" x="2001">Update activity with photo URLs</text><line marker-end="url(#arrowhead)" style="fill: none;" stroke="none" stroke-width="2" class="messageLine0" y2="2358" x2="1781" y1="2358" x1="2221"></line><text dy="1em" class="messageText" style="font-size: 16px; font-weight: 400;" alignment-baseline="middle" dominant-baseline="middle" text-anchor="middle" y="2373" x="1998">Updated</text><line marker-end="url(#arrowhead)" stroke="none" stroke-width="2" class="messageLine1" style="stroke-dasharray: 3px, 3px; fill: none;" y2="2414" x2="2218" y1="2414" x1="1778"></line><text dy="1em" class="messageText" style="font-size: 16px; font-weight: 400;" alignment-baseline="middle" dominant-baseline="middle" text-anchor="middle" y="2429" x="936">201 Created {activityId, photoUrls}</text><line marker-end="url(#arrowhead)" stroke="none" stroke-width="2" class="messageLine1" style="stroke-dasharray: 3px, 3px; fill: none;" y2="2470" x2="354" y1="2470" x1="1517"></line><text dy="1em" class="messageText" style="font-size: 16px; font-weight: 400;" alignment-baseline="middle" dominant-baseline="middle" text-anchor="middle" y="2485" x="533">Update activity (isSynced = true, serverId)</text><line marker-end="url(#arrowhead)" style="fill: none;" stroke="none" stroke-width="2" class="messageLine0" y2="2526" x2="714" y1="2526" x1="351"></line><text dy="1em" class="messageText" style="font-size: 16px; font-weight: 400;" alignment-baseline="middle" dominant-baseline="middle" text-anchor="middle" y="2541" x="536">Updated</text><line marker-end="url(#arrowhead)" stroke="none" stroke-width="2" class="messageLine1" style="stroke-dasharray: 3px, 3px; fill: none;" y2="2582" x2="354" y1="2582" x1="717"></line><text dy="1em" class="messageText" style="font-size: 16px; font-weight: 400;" alignment-baseline="middle" dominant-baseline="middle" text-anchor="middle" y="2597" x="533">Delete local photos (cleanup)</text><line marker-end="url(#arrowhead)" style="fill: none;" stroke="none" stroke-width="2" class="messageLine0" y2="2638" x2="714" y1="2638" x1="351"></line><text dy="1em" class="messageText" style="font-size: 16px; font-weight: 400;" alignment-baseline="middle" dominant-baseline="middle" text-anchor="middle" y="2653" x="536">Deleted</text><line marker-end="url(#arrowhead)" stroke="none" stroke-width="2" class="messageLine1" style="stroke-dasharray: 3px, 3px; fill: none;" y2="2694" x2="354" y1="2694" x1="717"></line><text dy="1em" class="messageText" style="font-size: 16px; font-weight: 400;" alignment-baseline="middle" dominant-baseline="middle" text-anchor="middle" y="2719" x="214">Sync complete notification</text><line marker-end="url(#arrowhead)" stroke="none" stroke-width="2" class="messageLine1" style="stroke-dasharray: 3px, 3px; fill: none;" y2="2760" x2="79" y1="2760" x1="349"></line><g name="Supervisor" class="actor-man actor-bottom"><line y2="2825" x2="75" y1="2805" x1="75" id="actor-man-torso64"></line><line y2="2813" x2="93" y1="2813" x1="57" id="actor-man-arms64"></line><line y2="2825" x2="75" y1="2840" x1="57"></line><line y2="2840" x2="91" y1="2825" x1="75"></line><circle height="65" width="150" r="15" cy="2790" cx="75"></circle><text class="actor" alignment-baseline="central" dominant-baseline="central" style="text-anchor: middle; font-size: 16px; font-weight: 400;" y="2847.5" x="75"><tspan dy="0" x="75">Supervisor</tspan></text></g></svg>